<?xml version="1.0" encoding="UTF-8"?>
<COLLADA xmlns="http://www.collada.org/2005/11/COLLADASchema" version="1.4.1">
    <asset>
        <contributor>
            <author>VCGLab</author>
            <authoring_tool>VCGLib | MeshLab</authoring_tool>
        </contributor>
        <created>Mon May 11 11:51:15 2026 GMT</created>
        <modified>Mon May 11 11:51:15 2026 GMT</modified>
        <up_axis>Y_UP</up_axis>
    </asset>
    <library_geometries>
        <geometry id="shape0-lib" name="shape0">
            <mesh>
                <source id="shape0-lib-positions" name="position">
                    <float_array id="shape0-lib-positions-array" count="480">835.064 250 740.96 776.131 250 739.762 717.472 250 733.946 300.12 250 531.246 259.283 250 488.738 384.498 250 2.01458 221.904 250 443.159 659.451 250 723.548 602.424 250 708.63 546.743 250 689.286 188.216 250 394.788 158.425 250 343.925 132.716 250 290.881 492.75 250 665.635 440.779 250 637.821 391.149 250 606.017 111.245 250 235.985 94.1467 250 179.573 81.5251 250 121.995 388.042 250 44.8632 344.166 250 570.419 395.757 250 87.1602 407.569 250 128.501 423.364 250 168.489 442.992 250 206.742 466.265 250 242.894 492.959 250 276.598 522.82 250 307.532 73.4582 250 63.6034 69.9958 250 4.75937 444.464 250 0 555.561 250 335.4 590.868 250 359.934 628.405 250 380.9 667.81 250 398.097 708.708 250 411.361 750.707 250 420.565 793.403 250 425.619 836.39 250 426.477 836.39 250 810.948 836.39 310 810.948 775.004 310 809.814 0 310 5.64897 0 0 5.64897 3.45698 0 66.9473 3.45698 310 66.9473 11.4851 0 127.816 11.4851 310 127.816 24.0395 0 187.914 24.0395 310 187.914 41.0499 0 246.906 41.0499 310 246.906 62.4213 0 304.462 62.4213 310 304.462 88.0341 0 360.26 88.0341 310 360.26 117.745 0 413.988 117.745 310 413.988 151.388 0 465.346 151.388 310 465.346 188.775 0 514.045 188.775 310 514.045 229.696 0 559.815 229.696 310 559.815 273.924 0 602.398 273.924 310 602.398 321.21 0 641.558 321.21 310 641.558 371.29 0 677.074 371.29 310 677.074 423.885 0 708.748 423.885 310 708.748 478.699 0 736.403 478.699 310 736.403 535.427 0 759.885 535.427 310 759.885 593.751 0 779.062 593.751 310 779.062 653.345 0 793.826 653.345 310 793.826 713.875 0 804.096 713.875 310 804.096 775.004 0 809.814 836.39 0 810.948 835.064 -1.11022e-13 740.96 836.39 -1.11022e-13 810.948 835.064 0 740.96 776.131 0 739.762 717.472 0 733.946 659.451 0 723.548 602.424 0 708.63 546.743 0 689.286 492.75 0 665.635 440.779 0 637.821 391.149 0 606.017 344.166 0 570.419 300.12 0 531.246 259.283 0 488.738 221.904 0 443.159 188.216 0 394.788 158.425 0 343.925 132.716 0 290.881 111.245 0 235.985 94.1467 0 179.573 81.5251 0 121.995 73.4582 0 63.6034 69.9958 0 4.75937 69.9958 -1.11022e-13 4.75937 0 -1.11022e-13 5.64897 444.464 310 0 836.39 0 426.477 836.39 0 366.448 836.39 310 366.448 796.684 310 365.702 796.684 0 365.702 757.274 310 360.81 757.274 0 360.81 718.591 310 351.825 718.591 0 351.825 681.059 310 338.847 681.059 0 338.847 645.09 310 322.016 645.09 0 322.016 611.076 310 301.517 611.076 0 301.517 579.392 310 277.576 579.392 0 277.576 550.384 310 250.453 550.384 0 250.453 524.37 310 220.447 524.37 0 220.447 501.635 310 187.887 501.635 0 187.887 482.428 310 153.128 482.428 0 153.128 466.959 310 116.552 466.959 0 116.552 455.399 310 78.5589 455.399 0 78.5589 447.873 310 39.566 447.873 0 39.566 444.464 0 0 384.498 -1.11022e-13 2.01458 444.464 -1.11022e-13 0 384.498 0 2.01458 388.042 0 44.8632 395.757 0 87.1602 407.569 0 128.501 423.364 0 168.489 442.992 0 206.742 466.265 0 242.894 492.959 0 276.598 522.82 0 307.532 555.561 0 335.4 590.868 0 359.934 628.405 0 380.9 667.81 0 398.097 708.708 0 411.361 750.707 0 420.565 793.403 0 425.619</float_array>
                    <technique_common>
                        <accessor count="160" source="#shape0-lib-positions-array" stride="3">
                            <param name="X" type="float"/>
                            <param name="Y" type="float"/>
                            <param name="Z" type="float"/>
                        </accessor>
                    </technique_common>
                </source>
                <source id="shape0-lib-normals" name="normal">
                    <float_array id="shape0-lib-normals-array" count="912">0 -1 0 0 -1 0 0 -1 0 0 -1 0 0 -1 0 0 -1 0 0 -1 0 0 -1 0 0 -1 0 0 -1 0 0 -1 0 0 -1 0 0 -1 0 0 -1 0 0 -1 0 0 -1 0 0 -1 0 0 -1 0 0 -1 0 0 -1 0 0 -1 0 0 -1 0 0 -1 0 0 -1 0 0 -1 0 0 -1 0 0 -1 0 0 -1 0 0 -1 0 0 -1 0 0 -1 0 0 -1 0 0 -1 0 0 -1 0 0 -1 0 0 -1 0 0 -1 0 0 -1 0 -0.018462 0 0.99983 -0.998414 0 0.0563066 -0.998414 0 0.0563066 -0.991414 0 0.13076 -0.991414 0 0.13076 -0.97887 0 0.204483 -0.97887 0 0.204483 -0.960852 0 0.277063 -0.960852 0 0.277063 -0.93746 0 0.348092 -0.93746 0 0.348092 -0.908826 0 0.417176 -0.908826 0 0.417176 -0.875109 0 0.483926 -0.875109 0 0.483926 -0.836498 0 0.547969 -0.836498 0 0.547969 -0.79321 0 0.608949 -0.79321 0 0.608949 -0.745485 0 0.666523 -0.745485 0 0.666523 -0.693591 0 0.720369 -0.693591 0 0.720369 -0.637818 0 0.770187 -0.637818 0 0.770187 -0.578479 0 0.815697 -0.578479 0 0.815697 -0.515904 0 0.856647 -0.515904 0 0.856647 -0.450444 0 0.892805 -0.450444 0 0.892805 -0.382465 0 0.92397 -0.382465 0 0.92397 -0.312348 0 0.949968 -0.312348 0 0.949968 -0.240482 0 0.970653 -0.240482 0 0.970653 -0.167273 0 0.985911 -0.167273 0 0.985911 -0.0931288 0 0.995654 -0.0931288 0 0.995654 -0.018462 0 0.99983 -0.018462 0 0.99983 0.999821 0 -0.0189349 0.999821 0 -0.0189349 0.0203175 0 -0.999794 0.0203175 0 -0.999794 0.0986697 0 -0.99512 0.0986697 0 -0.99512 0.176412 0 -0.984316 0.176412 0 -0.984316 0.253069 0 -0.967448 0.253069 0 -0.967448 0.328168 0 -0.944619 0.328168 0 -0.944619 0.401242 0 -0.915972 0.401242 0 -0.915972 0.471846 0 -0.881681 0.471846 0 -0.881681 0.539544 0 -0.841958 0.539544 0 -0.841958 0.603916 0 -0.797048 0.603916 0 -0.797048 0.664569 0 -0.747227 0.664569 0 -0.747227 0.721127 0 -0.692803 0.721127 0 -0.692803 0.773242 0 -0.634111 0.773242 0 -0.634111 0.820594 0 -0.571512 0.820594 0 -0.571512 0.86289 0 -0.505393 0.86289 0 -0.505393 0.89987 0 -0.436159 0.89987 0 -0.436159 0.931306 0 -0.364239 0.931306 0 -0.364239 0.957004 0 -0.290074 0.957004 0 -0.290074 0.976807 0 -0.214123 0.976807 0 -0.214123 0.990592 0 -0.136852 0.990592 0 -0.136852 0.998273 0 -0.0587383 0.998273 0 -0.0587383 -0.0127083 0 -0.999919 -0.0127083 0 -0.999919 -0.0127087 -4.21027e-07 -0.999919 -0.0127086 0 -0.999919 0 -1 0 0 -1 0 0 -1 0 0 -1 0 0 -1 0 0 -1 0 0 -1 0 0 -1 0 0 -1 0 0 -1 0 0 -1 0 0 -1 0 0 -1 0 0 -1 0 0 -1 0 0 -1 0 0 -1 0 0 -1 0 0 -1 0 0 -1 0 0 -1 0 0 -1 0 0 -1 0 0 -1 0 0 -1 0 0 -1 0 0 -1 0 0 -1 0 0 -1 0 0 -1 0 0 -1 0 0 -1 0 0 -1 0 0 -1 0 0 -1 0 0 -1 0 0 -1 0 0 -1 0 0 -1 0 0 -1 0 0 -1 0 1 0 0 1 0 0 1 0 0 1 0 0 0.0187758 0 -0.999824 0.0187758 0 -0.999824 0.123183 0 -0.992384 0.123183 0 -0.992384 0.226241 0 -0.974071 0.226241 0 -0.974071 0.326819 0 -0.945087 0.326819 0 -0.945087 0.423817 0 -0.905748 0.423817 0 -0.905748 0.516173 0 -0.856485 0.516173 0 -0.856485 0.602871 0 -0.797839 0.602871 0 -0.797839 0.682966 0 -0.73045 0.682966 0 -0.73045 0.755578 0 -0.655059 0.755578 0 -0.655059 0.81991 0 -0.572492 0.81991 0 -0.572492 0.875261 0 -0.483651 0.875261 0 -0.483651 0.921021 0 -0.389512 0.921021 0 -0.389512 0.956691 0 -0.291106 0.956691 0 -0.291106 0.981879 0 -0.189509 0.981879 0 -0.189509 0.996309 0 -0.0858372 0.996309 0 -0.0858372 0.996309 0 -0.0858372 0 1 0 0 1 0 0 1 0 0 1 0 0 1 0 0 1 0 0 1 0 0 1 0 0 1 0 0 1 0 0 1 0 0 1 0 0 1 0 0 1 0 0 1 0 0 1 0 0 1 0 0 1 0 0 1 0 0 1 0 0 1 0 0 1 0 0 1 0 0 1 0 0 1 0 0 1 0 0 1 0 0 1 0 0 1 0 0 1 0 0 1 0 0 1 0 0 1 0 0 1 0 0 1 0 0 1 0 -0.0335763 0 -0.999436 -0.0335763 0 -0.999436 -0.996597 0 0.0824328 -0.996597 0 0.0824328 -0.983769 0 0.179438 -0.983769 0 0.179438 -0.961523 0 0.274724 -0.961523 0 0.274724 -0.930071 0 0.367381 -0.930071 0 0.367381 -0.889714 0 0.456519 -0.889714 0 0.456519 -0.840838 0 0.541287 -0.840838 0 0.541287 -0.783911 0 0.620873 -0.783911 0 0.620873 -0.71948 0 0.694513 -0.71948 0 0.694513 -0.648159 0 0.761505 -0.648159 0 0.761505 -0.570633 0 0.821205 -0.570633 0 0.821205 -0.487644 0 0.873043 -0.487644 0 0.873043 -0.399985 0 0.916522 -0.399985 0 0.916522 -0.308497 0 0.951225 -0.308497 0 0.951225 -0.214055 0 0.976822 -0.214055 0 0.976822 -0.117563 0 0.993065 -0.117563 0 0.993065 -0.0199474 0 0.999801 -0.0199474 0 0.999801 0 -1 0 0 -1 0 0 -1 0 0 -1 0 0 -1 0 0 -1 0 0 -1 0 0 -1 0 0 -1 0 0 -1 0 0 -1 0 0 -1 0 0 -1 0 0 -1 0 0 -1 0 0 -1 0 0 -1 0 0 -1 0 0 -1 0 0 -1 0 0 -1 0 0 -1 0 0 -1 0 0 -1 0 0 -1 0 0 -1 0 0 -1 0 0 -1 0 0 -1 0 0 -1 0 0 -1 0</float_array>
                    <technique_common>
                        <accessor count="304" source="#shape0-lib-normals-array" stride="3">
                            <param name="X" type="float"/>
                            <param name="Y" type="float"/>
                            <param name="Z" type="float"/>
                        </accessor>
                    </technique_common>
                </source>
                <vertices id="shape0-lib-vertices">
                    <input semantic="POSITION" source="#shape0-lib-positions"/>
                </vertices>
                <triangles count="304">
                    <input offset="0" semantic="VERTEX" source="#shape0-lib-vertices"/>
                    <input offset="1" semantic="NORMAL" source="#shape0-lib-normals"/>
                    <p>0 0 1 0 2 0 3 1 4 1 5 1 5 2 4 2 6 2 2 3 7 3 0 3 0 4 7 4 8 4 0 5 8 5 9 5 6 6 10 6 5 6 5 7 10 7 11 7 5 8 11 8 12 8 9 9 13 9 0 9 0 10 13 10 14 10 0 11 14 11 15 11 12 12 16 12 5 12 5 13 16 13 17 13 5 14 17 14 18 14 19 15 15 15 5 15 5 16 15 16 20 16 5 17 20 17 3 17 19 18 21 18 15 18 15 19 21 19 22 19 15 20 22 20 23 20 23 21 24 21 15 21 15 22 24 22 25 22 15 23 25 23 0 23 0 24 25 24 26 24 0 25 26 25 27 25 18 26 28 26 5 26 5 27 28 27 29 27 5 28 29 28 30 28 27 29 31 29 0 29 0 30 31 30 32 30 0 31 32 31 33 31 33 32 34 32 0 32 0 33 34 33 35 33 0 34 35 34 36 34 36 35 37 35 0 35 0 36 37 36 38 36 0 37 38 37 39 37 39 38 40 38 41 38 42 39 43 39 44 39 42 40 44 40 45 40 45 41 44 41 46 41 45 42 46 42 47 42 47 43 46 43 48 43 47 44 48 44 49 44 49 45 48 45 50 45 49 46 50 46 51 46 51 47 50 47 52 47 51 48 52 48 53 48 53 49 52 49 54 49 53 50 54 50 55 50 55 51 54 51 56 51 55 52 56 52 57 52 57 53 56 53 58 53 57 54 58 54 59 54 59 55 58 55 60 55 59 56 60 56 61 56 61 57 60 57 62 57 61 58 62 58 63 58 63 59 62 59 64 59 63 60 64 60 65 60 65 61 64 61 66 61 65 62 66 62 67 62 67 63 66 63 68 63 67 64 68 64 69 64 69 65 68 65 70 65 69 66 70 66 71 66 71 67 70 67 72 67 71 68 72 68 73 68 73 69 72 69 74 69 73 70 74 70 75 70 75 71 74 71 76 71 75 72 76 72 77 72 77 73 76 73 78 73 77 74 78 74 79 74 79 75 78 75 80 75 79 76 80 76 81 76 81 77 80 77 82 77 81 78 82 78 41 78 41 79 82 79 83 79 41 80 83 80 39 80 0 81 39 81 84 81 84 82 39 82 85 82 0 83 86 83 1 83 1 84 86 84 87 84 1 85 87 85 2 85 2 86 87 86 88 86 2 87 88 87 7 87 7 88 88 88 89 88 7 89 89 89 8 89 8 90 89 90 90 90 8 91 90 91 9 91 9 92 90 92 91 92 9 93 91 93 13 93 13 94 91 94 92 94 13 95 92 95 14 95 14 96 92 96 93 96 14 97 93 97 15 97 15 98 93 98 94 98 15 99 94 99 20 99 20 100 94 100 95 100 20 101 95 101 3 101 3 102 95 102 96 102 3 103 96 103 4 103 4 104 96 104 97 104 4 105 97 105 6 105 6 106 97 106 98 106 6 107 98 107 10 107 10 108 98 108 99 108 10 109 99 109 11 109 11 110 99 110 100 110 11 111 100 111 12 111 12 112 100 112 101 112 12 113 101 113 16 113 16 114 101 114 102 114 16 115 102 115 17 115 17 116 102 116 103 116 17 117 103 117 18 117 18 118 103 118 104 118 18 119 104 119 28 119 28 120 104 120 105 120 28 121 105 121 29 121 29 122 105 122 106 122 107 123 108 123 29 123 29 124 108 124 42 124 29 125 42 125 30 125 30 126 42 126 109 126 43 127 106 127 44 127 44 128 106 128 105 128 44 129 105 129 46 129 46 130 105 130 104 130 46 131 104 131 48 131 48 132 104 132 103 132 48 133 103 133 50 133 50 134 103 134 102 134 50 135 102 135 52 135 52 136 102 136 101 136 52 137 101 137 54 137 54 138 101 138 100 138 54 139 100 139 56 139 56 140 100 140 99 140 56 141 99 141 58 141 58 142 99 142 98 142 58 143 98 143 60 143 60 144 98 144 97 144 60 145 97 145 62 145 62 146 97 146 96 146 86 147 83 147 87 147 87 148 83 148 82 148 87 149 82 149 88 149 88 150 82 150 80 150 88 151 80 151 89 151 89 152 80 152 78 152 89 153 78 153 90 153 90 154 78 154 76 154 90 155 76 155 91 155 91 156 76 156 74 156 91 157 74 157 92 157 92 158 74 158 72 158 92 159 72 159 93 159 93 160 72 160 70 160 93 161 70 161 94 161 94 162 70 162 68 162 94 163 68 163 95 163 95 164 68 164 66 164 95 165 66 165 96 165 96 166 66 166 64 166 96 167 64 167 62 167 110 168 111 168 38 168 38 169 111 169 112 169 38 170 112 170 39 170 39 171 112 171 40 171 112 172 111 172 113 172 113 173 111 173 114 173 113 174 114 174 115 174 115 175 114 175 116 175 115 176 116 176 117 176 117 177 116 177 118 177 117 178 118 178 119 178 119 179 118 179 120 179 119 180 120 180 121 180 121 181 120 181 122 181 121 182 122 182 123 182 123 183 122 183 124 183 123 184 124 184 125 184 125 185 124 185 126 185 125 186 126 186 127 186 127 187 126 187 128 187 127 188 128 188 129 188 129 189 128 189 130 189 129 190 130 190 131 190 131 191 130 191 132 191 131 192 132 192 133 192 133 193 132 193 134 193 133 194 134 194 135 194 135 195 134 195 136 195 135 196 136 196 137 196 137 197 136 197 138 197 137 198 138 198 139 198 139 199 138 199 140 199 140 200 141 200 139 200 139 201 141 201 30 201 139 202 30 202 109 202 135 203 137 203 49 203 40 204 112 204 41 204 41 205 112 205 113 205 41 206 113 206 81 206 81 207 113 207 115 207 121 208 73 208 119 208 119 209 73 209 75 209 119 210 75 210 117 210 117 211 75 211 77 211 117 212 77 212 115 212 115 213 77 213 79 213 115 214 79 214 81 214 131 215 59 215 129 215 129 216 59 216 61 216 129 217 61 217 127 217 127 218 61 218 63 218 127 219 63 219 125 219 49 220 137 220 47 220 47 221 137 221 139 221 47 222 139 222 45 222 45 223 139 223 109 223 45 224 109 224 42 224 63 225 65 225 125 225 125 226 65 226 67 226 125 227 67 227 123 227 123 228 67 228 69 228 123 229 69 229 121 229 121 230 69 230 71 230 121 231 71 231 73 231 49 232 51 232 135 232 135 233 51 233 53 233 135 234 53 234 133 234 133 235 53 235 55 235 133 236 55 236 131 236 131 237 55 237 57 237 131 238 57 238 59 238 5 239 30 239 142 239 142 240 30 240 143 240 5 241 144 241 145 241 5 242 145 242 19 242 19 243 145 243 146 243 19 244 146 244 21 244 21 245 146 245 147 245 21 246 147 246 22 246 22 247 147 247 148 247 22 248 148 248 23 248 23 249 148 249 149 249 23 250 149 250 24 250 24 251 149 251 150 251 24 252 150 252 25 252 25 253 150 253 151 253 25 254 151 254 26 254 26 255 151 255 152 255 26 256 152 256 27 256 27 257 152 257 153 257 27 258 153 258 31 258 31 259 153 259 154 259 31 260 154 260 32 260 32 261 154 261 155 261 32 262 155 262 33 262 33 263 155 263 156 263 33 264 156 264 34 264 34 265 156 265 157 265 34 266 157 266 35 266 35 267 157 267 158 267 35 268 158 268 36 268 36 269 158 269 159 269 36 270 159 270 37 270 37 271 159 271 110 271 37 272 110 272 38 272 111 273 110 273 114 273 114 274 110 274 159 274 114 275 159 275 116 275 116 276 159 276 158 276 116 277 158 277 118 277 118 278 158 278 157 278 118 279 157 279 120 279 120 280 157 280 156 280 120 281 156 281 122 281 122 282 156 282 155 282 122 283 155 283 124 283 124 284 155 284 154 284 124 285 154 285 126 285 144 286 141 286 145 286 145 287 141 287 140 287 145 288 140 288 146 288 146 289 140 289 138 289 146 290 138 290 147 290 147 291 138 291 136 291 147 292 136 292 148 292 148 293 136 293 134 293 148 294 134 294 149 294 149 295 134 295 132 295 149 296 132 296 150 296 150 297 132 297 130 297 150 298 130 298 151 298 151 299 130 299 128 299 151 300 128 300 152 300 152 301 128 301 126 301 152 302 126 302 153 302 153 303 126 303 154 303</p>
                </triangles>
            </mesh>
        </geometry>
    </library_geometries>
    <library_visual_scenes>
        <visual_scene id="VisualSceneNode" name="VisualScene">
            <node id="node" name="node">
                <instance_geometry url="#shape0-lib"/>
            </node>
        </visual_scene>
    </library_visual_scenes>
    <scene>
        <instance_visual_scene url="#VisualSceneNode"/>
    </scene>
</COLLADA>
