<?xml version="1.0" encoding="UTF-8"?>
<COLLADA xmlns="http://www.collada.org/2005/11/COLLADASchema" version="1.4.1">
    <asset>
        <contributor>
            <author>VCGLab</author>
            <authoring_tool>VCGLib | MeshLab</authoring_tool>
        </contributor>
        <created>Mon May 11 11:50:42 2026 GMT</created>
        <modified>Mon May 11 11:50:42 2026 GMT</modified>
        <up_axis>Y_UP</up_axis>
    </asset>
    <library_geometries>
        <geometry id="shape0-lib" name="shape0">
            <mesh>
                <source id="shape0-lib-positions" name="position">
                    <float_array id="shape0-lib-positions-array" count="90">-4.44089e-13 0 0 -4.44089e-13 0 300 161.132 42.9841 300 161.132 42.9841 0 323.978 78.9288 300 323.978 78.9288 0 488.232 107.766 300 488.232 107.766 0 653.584 129.442 300 653.584 129.442 0 819.721 143.916 300 819.721 143.916 0 986.33 151.159 300 986.33 151.159 0 1153.1 151.159 300 1153.1 151.159 0 1319.71 143.916 300 1319.71 143.916 0 1485.84 129.442 300 1485.84 129.442 0 1651.19 107.766 300 1651.19 107.766 0 1815.45 78.9288 300 1815.45 78.9288 0 1978.29 42.9841 300 1978.29 42.9841 0 2139.43 0 300 2139.43 0 0 0 0 0 0 0 300</float_array>
                    <technique_common>
                        <accessor count="30" source="#shape0-lib-positions-array" stride="3">
                            <param name="X" type="float"/>
                            <param name="Y" type="float"/>
                            <param name="Z" type="float"/>
                        </accessor>
                    </technique_common>
                </source>
                <source id="shape0-lib-normals" name="normal">
                    <float_array id="shape0-lib-normals-array" count="156">-0.25775 0.966212 0 -0.25775 0.966212 0 -0.21554 0.976495 0 -0.21554 0.976495 0 -0.172922 0.984936 0 -0.172922 0.984936 0 -0.129978 0.991517 0 -0.129978 0.991517 0 -0.0867883 0.996227 0 -0.0867883 0.996227 0 -0.0434352 0.999056 0 -0.0434352 0.999056 0 0 1 0 0 1 0 0.0434352 0.999056 0 0.0434352 0.999056 0 0.0867883 0.996227 0 0.0867883 0.996227 0 0.129978 0.991517 0 0.129978 0.991517 0 0.172922 0.984936 0 0.172922 0.984936 0 0.215539 0.976495 0 0.215539 0.976495 0 0.25775 0.966212 0 0.25775 0.966212 0 0 -1 0 0 -1 0 0 0 -1 0 0 -1 0 0 -1 0 0 -1 0 0 -1 0 0 -1 0 0 -1 0 0 -1 0 0 -1 0 0 -1 0 0 -1 0 0 -1 0 0 1 0 0 1 0 0 1 0 0 1 0 0 1 0 0 1 0 0 1 0 0 1 0 0 1 0 0 1 0 0 1 0 0 1</float_array>
                    <technique_common>
                        <accessor count="52" source="#shape0-lib-normals-array" stride="3">
                            <param name="X" type="float"/>
                            <param name="Y" type="float"/>
                            <param name="Z" type="float"/>
                        </accessor>
                    </technique_common>
                </source>
                <vertices id="shape0-lib-vertices">
                    <input semantic="POSITION" source="#shape0-lib-positions"/>
                </vertices>
                <triangles count="52">
                    <input offset="0" semantic="VERTEX" source="#shape0-lib-vertices"/>
                    <input offset="1" semantic="NORMAL" source="#shape0-lib-normals"/>
                    <p>0 0 1 0 2 0 0 1 2 1 3 1 3 2 2 2 4 2 3 3 4 3 5 3 5 4 4 4 6 4 5 5 6 5 7 5 7 6 6 6 8 6 7 7 8 7 9 7 9 8 8 8 10 8 9 9 10 9 11 9 11 10 10 10 12 10 11 11 12 11 13 11 13 12 12 12 14 12 13 13 14 13 15 13 15 14 14 14 16 14 15 15 16 15 17 15 17 16 16 16 18 16 17 17 18 17 19 17 19 18 18 18 20 18 19 19 20 19 21 19 21 20 20 20 22 20 21 21 22 21 23 21 23 22 22 22 24 22 23 23 24 23 25 23 25 24 24 24 26 24 25 25 26 25 27 25 28 26 27 26 1 26 1 27 27 27 26 27 3 28 17 28 28 28 28 29 17 29 19 29 28 30 19 30 21 30 13 31 7 31 11 31 11 32 7 32 9 32 3 33 5 33 17 33 17 34 5 34 7 34 17 35 7 35 15 35 15 36 7 36 13 36 21 37 23 37 28 37 28 38 23 38 25 38 28 39 25 39 27 39 26 40 24 40 29 40 29 41 24 41 22 41 29 42 22 42 20 42 4 43 16 43 6 43 6 44 16 44 14 44 14 45 12 45 6 45 6 46 12 46 10 46 6 47 10 47 8 47 20 48 18 48 29 48 29 49 18 49 16 49 29 50 16 50 2 50 2 51 16 51 4 51</p>
                </triangles>
            </mesh>
        </geometry>
    </library_geometries>
    <library_visual_scenes>
        <visual_scene id="VisualSceneNode" name="VisualScene">
            <node id="node" name="node">
                <instance_geometry url="#shape0-lib"/>
            </node>
        </visual_scene>
    </library_visual_scenes>
    <scene>
        <instance_visual_scene url="#VisualSceneNode"/>
    </scene>
</COLLADA>
